<svg data-v-423bf9ae="" xmlns="http://www.w3.org/2000/svg" viewBox="0 0 700.3366035863063 163" class="iconAbove">
  <!--
  <g data-v-423bf9ae="" id="c43a822f-5dff-4186-b4bd-8bf679a19b49" fill="#262C4C" transform="matrix(5.940593835033989,0,0,5.940593835033989,-6.950483053271682,83.75247520258023)">
    <path d="M3.94 3.82L1.17 3.82L1.17 13.15L3.94 13.15C7.19 13.15 8.97 11.10 8.97 8.47C8.97 5.86 7.19 3.82 3.94 3.82ZM3.70 11.94L2.65 11.94L2.65 5.03L3.70 5.03C6.21 5.03 7.42 6.39 7.42 8.47C7.42 10.57 6.21 11.94 3.70 11.94ZM16.76 9.70C16.76 7.73 15.43 6.36 13.50 6.36C11.52 6.36 10.09 7.89 10.09 9.84C10.09 11.80 11.51 13.31 13.68 13.31C14.82 13.31 15.78 12.92 16.38 12.25L15.40 11.46C14.98 11.94 14.41 12.19 13.66 12.19C12.43 12.19 11.68 11.33 11.58 10.15L16.76 10.15ZM13.50 7.50C14.54 7.50 15.21 8.12 15.36 9.17L11.64 9.17C11.84 8.17 12.53 7.50 13.50 7.50ZM24.46 9.70C24.46 7.73 23.13 6.36 21.20 6.36C19.22 6.36 17.79 7.89 17.79 9.84C17.79 11.80 19.21 13.31 21.38 13.31C22.52 13.31 23.48 12.92 24.08 12.25L23.10 11.46C22.68 11.94 22.11 12.19 21.36 12.19C20.13 12.19 19.38 11.33 19.28 10.15L24.46 10.15ZM21.20 7.50C22.24 7.50 22.91 8.12 23.06 9.17L19.34 9.17C19.54 8.17 20.23 7.50 21.20 7.50ZM33.16 6.36C32.00 6.36 31.41 6.80 30.99 7.41C30.57 6.66 29.84 6.36 29.08 6.36C28.32 6.36 27.64 6.72 27.26 7.38L27.10 6.53L25.86 6.53L25.86 13.15L27.27 13.15L27.27 9.26C27.36 8.15 27.88 7.57 28.73 7.57C29.63 7.57 30.00 8.31 30.00 9.39L30.00 13.15L31.41 13.15L31.41 9.60C31.41 8.30 31.94 7.57 32.86 7.57C33.77 7.57 34.14 8.31 34.14 9.38L34.14 13.15L35.55 13.15L35.55 9.28C35.55 7.12 34.42 6.36 33.16 6.36ZM38.08 5.26C38.59 5.26 39.00 4.86 39.00 4.36C39.00 3.86 38.59 3.46 38.08 3.46C37.58 3.46 37.17 3.86 37.17 4.36C37.17 4.86 37.58 5.26 38.08 5.26ZM37.41 13.15L38.79 13.15L38.79 6.53L37.41 6.53ZM46.61 13.15L44.06 9.70L46.33 6.53L44.73 6.53L43.25 8.74L41.77 6.53L40.18 6.53L42.47 9.71L39.91 13.15L41.55 13.15L43.25 10.68L44.96 13.15ZM57.47 13.15L59.08 13.15L55.39 3.82L53.89 3.82L50.20 13.15L51.80 13.15L52.69 10.75L56.58 10.73ZM53.13 9.57L54.64 5.45L56.15 9.57ZM62.66 13.33C64.11 13.33 65.63 12.67 65.63 10.31L65.63 6.53L64.21 6.53L64.21 10.32C64.21 11.43 63.67 12.12 62.66 12.12C61.66 12.12 61.12 11.43 61.12 10.32L61.12 6.53L59.70 6.53L59.70 10.31C59.70 12.67 61.22 13.33 62.66 13.33ZM70.45 6.53L69.04 6.53L69.04 4.64L67.64 4.64L67.64 6.53L66.76 6.53L66.76 7.67L67.64 7.67L67.64 13.15L69.05 13.15L69.04 7.67L70.45 7.67ZM74.71 13.34C76.80 13.34 78.25 11.81 78.25 9.84C78.25 7.89 76.80 6.36 74.71 6.36C72.60 6.36 71.15 7.89 71.15 9.84C71.15 11.81 72.60 13.34 74.71 13.34ZM74.71 12.13C73.49 12.13 72.63 11.14 72.63 9.84C72.63 8.56 73.49 7.57 74.71 7.57C75.92 7.57 76.78 8.56 76.78 9.84C76.78 11.14 75.92 12.13 74.71 12.13ZM79.70 13.15L81.11 13.15L81.11 3.24L79.70 3.24ZM86.11 13.34C88.20 13.34 89.66 11.81 89.66 9.84C89.66 7.89 88.20 6.36 86.11 6.36C84.00 6.36 82.56 7.89 82.56 9.84C82.56 11.81 84.00 13.34 86.11 13.34ZM86.11 12.13C84.89 12.13 84.03 11.14 84.03 9.84C84.03 8.56 84.89 7.57 86.11 7.57C87.33 7.57 88.19 8.56 88.19 9.84C88.19 11.14 87.33 12.13 86.11 12.13ZM96.26 6.53L96.08 7.45C95.56 6.78 94.79 6.36 93.77 6.36C92.05 6.36 90.68 7.69 90.68 9.84C90.68 12.00 92.05 13.31 93.77 13.31C94.78 13.31 95.55 12.89 96.06 12.22L96.26 13.15L97.43 13.15L97.43 6.53ZM94.11 12.12C92.91 12.12 92.12 11.14 92.12 9.84C92.12 8.55 92.91 7.55 94.11 7.55C95.35 7.55 96.15 8.55 96.15 9.84C96.15 11.14 95.35 12.12 94.11 12.12ZM104.11 3.24L104.11 7.32C103.60 6.72 102.87 6.36 101.92 6.36C100.20 6.36 98.83 7.69 98.83 9.84C98.83 12.00 100.20 13.31 101.92 13.31C102.91 13.31 103.69 12.91 104.20 12.25L104.37 13.15L105.53 13.15L105.53 3.24ZM102.26 12.12C101.06 12.12 100.28 11.14 100.28 9.84C100.28 8.55 101.06 7.55 102.26 7.55C103.50 7.55 104.30 8.55 104.30 9.84C104.30 11.14 103.50 12.12 102.26 12.12ZM113.58 9.70C113.58 7.73 112.25 6.36 110.32 6.36C108.34 6.36 106.91 7.89 106.91 9.84C106.91 11.80 108.33 13.31 110.50 13.31C111.64 13.31 112.60 12.92 113.20 12.25L112.22 11.46C111.80 11.94 111.23 12.19 110.48 12.19C109.24 12.19 108.50 11.33 108.40 10.15L113.58 10.15ZM110.32 7.50C111.36 7.50 112.03 8.12 112.18 9.17L108.46 9.17C108.66 8.17 109.35 7.50 110.32 7.50ZM118.07 6.36C117.28 6.36 116.75 6.74 116.38 7.41L116.20 6.53L114.98 6.53L114.98 13.15L116.39 13.15L116.39 9.70C116.39 8.62 116.96 7.66 117.99 7.66C118.23 7.66 118.45 7.70 118.64 7.79L119.06 6.58C118.88 6.47 118.50 6.36 118.07 6.36Z"></path>
  </g>-->
  <defs data-v-423bf9ae="">
    <linearGradient data-v-423bf9ae="" gradientTransform="rotate(25)" id="e91ca65d-e98a-417b-a447-b64dd32be9af" x1="0%" y1="0%" x2="100%" y2="0%">
      <stop data-v-423bf9ae="" offset="0%" style="stop-color: rgb(233, 13, 218); stop-opacity: 1;"></stop>
      <stop data-v-423bf9ae="" offset="100%" style="stop-color: rgb(21, 207, 241); stop-opacity: 1;"></stop>
    </linearGradient>
  </defs>
  <g data-v-423bf9ae="" id="d4d41e36-c2da-46b4-92de-87894204ec27" transform="matrix(2.8125,0,0,2.8125,306,0)" stroke="none" fill="url(#e91ca65d-e98a-417b-a447-b64dd32be9af)">
    <path d="M16 32c8.837 0 16-7.163 16-16S24.837 0 16 0 0 7.163 0 16s7.163 16 16 16zM14.817 6.421h2v8.886h8.887v2H14.817V6.421zm-5.959.437h2v14.283h14.283v2H8.858V6.858z"></path>
  </g>
</svg>