<?xml version="1.0" encoding="UTF-8" standalone="no"?>
<!DOCTYPE svg PUBLIC "-//W3C//DTD SVG 1.1//EN" "http://www.w3.org/Graphics/SVG/1.1/DTD/svg11.dtd">
<svg width="100%" height="100%" viewBox="0 0 90 90" version="1.1" xmlns="http://www.w3.org/2000/svg" xmlns:xlink="http://www.w3.org/1999/xlink" xml:space="preserve" xmlns:serif="http://www.serif.com/" style="fill-rule:evenodd;clip-rule:evenodd;stroke-linejoin:round;stroke-miterlimit:2;">
    <g transform="matrix(2.8125,0,0,2.8125,0,0)">
        <path d="M16,32C24.837,32 32,24.837 32,16C32,7.163 24.837,0 16,0C7.163,0 0,7.163 0,16C0,24.837 7.163,32 16,32ZM14.817,6.421L16.817,6.421L16.817,15.307L25.704,15.307L25.704,17.307L14.817,17.307L14.817,6.421ZM8.858,6.858L10.858,6.858L10.858,21.141L25.141,21.141L25.141,23.141L8.858,23.141L8.858,6.858Z" style="fill:url(#_Linear1);fill-rule:nonzero;"/>
    </g>
    <defs>
        <linearGradient id="_Linear1" x1="0" y1="0" x2="1" y2="0" gradientUnits="userSpaceOnUse" gradientTransform="matrix(29.0018,13.5238,-13.5238,29.0018,0,0)"><stop offset="0" style="stop-color:rgb(233,13,218);stop-opacity:1"/><stop offset="1" style="stop-color:rgb(21,207,241);stop-opacity:1"/></linearGradient>
    </defs>
</svg>
